<svg xmlns="http://www.w3.org/2000/svg" xmlns:xlink="http://www.w3.org/1999/xlink" viewBox="0 0 280 250" preserveAspectRatio="xMidYMid" style="display: block; shape-rendering: auto; background: rgb(255, 255, 255);" width="280" height="250"><style type="text/css">
  .ld-text text {
    text-anchor: middle;
    dominant-baseline: middle;
    font-size: 80px;
    opacity: 0;
    user-select: none;
    pointer-events: none;
  }
</style>
<g style="transform-origin:140px 125px;transform:scale(1)" class="ld-text">
<g transform="translate(140,125)">
  <g transform="scale(1.0000) translate(0,0)"><g class="path" style="opacity: 1; transform-origin: -23.36px 2.62px; transform: matrix3d(0.91, 0, 0, 0, 0, 0.91, 0, 0, 0, 0, 0.91, 0, 0, 0, 0, 1); animation: 0.507614s linear -0.167513s infinite normal forwards running animate-nq4q5u6dq7r; transform-box: view-box;"><path d="M6 35.88L6 35.88L6.16 19.72Q6.16 0.76 4.32-1.72L4.32-1.72Q3.44-2.84 3.44-3.28Q3.44-3.72 4.52-4.32Q5.60-4.92 8.72-5.64Q11.84-6.36 14.24-6.36Q16.64-6.36 16.64-5.24L16.64-5.24L16.48-4.20Q15.52 4.44 15.52 12.68Q15.52 20.92 16 31.08Q16.48 41.24 16.48 46.04L16.48 46.04Q16.48 52.52 11.48 57.20Q6.48 61.88-0.40 62.28L-0.40 62.28Q-1.76 62.12-1.76 61.32L-1.76 61.32Q-1.76 60.76-1.40 60.44Q-1.04 60.12-0.56 59.64Q-0.08 59.16 1.20 57.16Q2.48 55.16 3.44 52.64Q4.40 50.12 5.20 45.64Q6 41.16 6 35.88" style="fill: rgb(12, 56, 102);" transform="translate(-30.800,-25.340)"></path></g><g class="path" style="opacity: 1; transform-origin: 10.04px -2.62px; transform: matrix3d(0.91, 0, 0, 0, 0, 0.91, 0, 0, 0, 0, 0.91, 0, 0, 0, 0, 1); animation: 0.507614s linear 0s infinite normal forwards running animate-nq4q5u6dq7r; transform-box: view-box;"><path d="M40.32 17.16L40.32 17.16Q40.64 17.16 41.52 17.80Q42.40 18.44 43.36 18.44L43.36 18.44L43.44 18.44Q46.16 18.44 47.76 16.28Q49.36 14.12 49.52 11.96L49.52 11.96L49.76 9.80Q49.76 6.76 48.84 4.56Q47.92 2.36 46.72 1.28Q45.52 0.20 43.92-0.36L43.92-0.36Q41.92-1.16 39.72-1.16Q37.52-1.16 36.16-0.72Q34.80-0.28 34.64 0.12L34.64 0.12L34.56 0.60Q33.84 11.40 33.84 19.92Q33.84 28.44 34.12 34.60Q34.40 40.76 34.68 44.08Q34.96 47.40 34.96 47.72L34.96 47.72Q34.96 49.72 31.44 50.92Q27.92 52.12 24.48 52.12L24.48 52.12Q22.88 52.12 22.88 51.32L22.88 51.32Q22.88 51.08 23.12 50.20L23.12 50.20Q24.64 46.68 24.64 17.48L24.64 17.48Q24.64 0.28 22.32-2.20L22.32-2.20Q21.84-2.68 21.84-3.20Q21.84-3.72 23-4.36Q24.16-5 29.52-5.84Q34.88-6.68 40.88-6.68L40.88-6.68Q50.32-6.68 55.08-1.56Q59.84 3.56 59.84 10.64Q59.84 17.72 55.96 22.92Q52.08 28.12 45.84 28.12L45.84 28.12Q43.84 28.12 41.84 27.40L41.84 27.40Q37.84 25.96 37.84 21.40L37.84 21.40Q37.84 20.44 38.48 18.80Q39.12 17.16 40.32 17.16" style="fill: rgb(73, 192, 182);" transform="translate(-30.800,-25.340)"></path></g></g><text dy="0.35em" fill="#0c3866" font-family="Aladin" font-size="80">JP</text>
</g>
</g><style type="text/css">@keyframes animate-nq4q5u6dq7r { 0.00% {transform: translate(0.00px,0.00px) rotate(0.00deg) scale(0.91, 0.91) skew(0deg, 0.00deg) ;opacity: 1.00;}4.00% {transform: translate(0.00px,0.00px) rotate(0.00deg) scale(0.91, 0.91) ;}8.00% {animation-timing-function: cubic-bezier(0.69,0.60,0.35,0.27);transform: translate(0.00px,0.00px) rotate(0.00deg) scale(0.91, 0.91) ;}14.00% {transform: translate(0.00px,0.00px) rotate(0.00deg) scale(0.93, 0.93) ;}18.00% {transform: translate(0.00px,0.00px) rotate(0.00deg) scale(0.94, 0.94) ;}22.00% {animation-timing-function: cubic-bezier(0.67,0.66,0.34,0.33);transform: translate(0.00px,0.00px) rotate(0.00deg) scale(0.96, 0.96) ;}26.00% {transform: translate(0.00px,0.00px) rotate(0.00deg) scale(0.97, 0.97) ;}30.00% {transform: translate(0.00px,0.00px) rotate(0.00deg) scale(0.99, 0.99) ;}34.00% {animation-timing-function: cubic-bezier(0.65,0.71,0.32,0.38);transform: translate(0.00px,0.00px) rotate(0.00deg) scale(1.01, 1.01) ;}40.00% {animation-timing-function: cubic-bezier(0.64,0.74,0.31,0.41);transform: translate(0.00px,0.00px) rotate(0.00deg) scale(1.02, 1.02) ;}46.00% {animation-timing-function: cubic-bezier(0.60,0.91,0.23,0.63);transform: translate(0.00px,0.00px) rotate(0.00deg) scale(1.03, 1.03) ;}50.00% {transform: translate(0.00px,0.00px) rotate(0.00deg) scale(1.03, 1.03) ;}54.00% {transform: translate(0.00px,0.00px) rotate(0.00deg) scale(1.03, 1.03) ;}58.00% {animation-timing-function: cubic-bezier(0.69,0.60,0.35,0.27);transform: translate(0.00px,0.00px) rotate(0.00deg) scale(1.03, 1.03) ;}64.00% {transform: translate(0.00px,0.00px) rotate(0.00deg) scale(1.01, 1.01) ;}68.00% {transform: translate(0.00px,0.00px) rotate(0.00deg) scale(1.00, 1.00) ;}72.00% {animation-timing-function: cubic-bezier(0.67,0.66,0.34,0.33);transform: translate(0.00px,0.00px) rotate(0.00deg) scale(0.98, 0.98) ;}76.00% {animation-timing-function: cubic-bezier(0.66,0.68,0.33,0.35);transform: translate(0.00px,0.00px) rotate(0.00deg) scale(0.97, 0.97) ;}82.00% {animation-timing-function: cubic-bezier(0.65,0.71,0.32,0.38);transform: translate(0.00px,0.00px) rotate(0.00deg) scale(0.94, 0.94) ;}88.00% {animation-timing-function: cubic-bezier(0.65,0.73,0.31,0.40);transform: translate(0.00px,0.00px) rotate(0.00deg) scale(0.92, 0.92) ;}94.00% {animation-timing-function: cubic-bezier(0.63,0.80,0.28,0.48);transform: translate(0.00px,0.00px) rotate(0.00deg) scale(0.91, 0.91) ;}100.00% {animation-timing-function: cubic-bezier(0.63,0.80,0.28,0.48);transform: translate(0.00px,0.00px) rotate(0.00deg) scale(0.91, 0.91) ;} }</style><!-- [ldio] generated by https://loading.io --></svg>